<svg xmlns="http://www.w3.org/2000/svg" width="18" height="18" viewBox="0 0 18 18">
<symbol id="light" viewBox="0 0 18 18">
<path d="M6.75 15.75c0 .4125.3375.75.75.75h3c.4125 0 .75-.3375.75-.75H6.75v1zm2.25-14.25C6.105 1.5 3.75 3.855 3.75 6.75c0 1.785 .8925 3.3525 2.25 4.305V12.75c0 .4125.3375.75.75.75h4.5c.4125 0 .75-.3375.75-.75v-1.695c1.3575-.9525 2.25-2.52 2.25-4.305 0-2.895-2.355-5.25-5.25-5.25zm2.1375 8.325l-.6375.45V12h-3v-1.725l-.6375-.45C5.85 9.12 5.25 7.9725 5.25 6.75c0-2.07 1.68-3.75 3.75-3.75s3.75 1.68 3.75 3.75c0 1.2225-.6 2.37-1.6125 3.075z"/>
</symbol>
</svg>